<svg width="111" height="54" viewBox="0 0 111 54" fill="#FFFFFF" xmlns="http://www.w3.org/2000/svg"><path d="M46.25.41h6.6v36.62l-6.06-2.65c-1.72 1.46-4.44 2.84-7.08 2.84a13.06 13.06 0 01-9.44-3.85 13.36 13.36 0 01-3.93-9.5 13.5 13.5 0 013.93-9.5 13.18 13.18 0 019.44-3.86h1.76v6.68H39.7a6.52 6.52 0 00-6.3 4.06 6.74 6.74 0 003.7 8.84c.83.32 1.71.47 2.6.44 3.39 0 6.39-1.87 6.55-5.32V.4zm-27.42 21.4v-7.85h-7.37v7.85h7.37zM.01 36.76h23.78v-6.68H6.59V6.68h17.2V0H0v36.76zm60.14.02h6.6V13.64h-6.6v23.14zM90.1 6.68V0h-2.96a13.3 13.3 0 00-9.45 3.97 13.63 13.63 0 00-3.92 9.56v23.25h6.6V13.53a6.9 6.9 0 011.98-4.84 6.74 6.74 0 014.79-2.01h2.96zM59.76 8.26h7.37V.41h-7.37v7.85zm25.55 19.8h7.37V20.2h-7.37v7.85zm18.2-7.86L91.05 43.7a6.79 6.79 0 01-5.95 3.58h-3.01V54h3c2.42 0 4.8-.67 6.87-1.92a13.48 13.48 0 004.91-5.2L111 20.2h-7.49z"/></svg>
