<svg width="107" height="68" viewBox="0 0 107 68" fill="none" xmlns="http://www.w3.org/2000/svg">
<rect x="2" y="1.73706" width="102.688" height="64.5259" rx="10" stroke="#4219B5" stroke-width="3" stroke-linecap="round" stroke-dasharray="15 15"/>
<path d="M19.7774 31.5295C20.0674 31.7495 20.4174 31.9295 20.8274 32.0695C21.2474 32.1995 21.6824 32.2645 22.1324 32.2645C22.4924 32.2645 22.8374 32.2245 23.1674 32.1445C23.5074 32.0545 23.8074 31.9195 24.0674 31.7395C24.3374 31.5495 24.5524 31.3145 24.7124 31.0345C24.8724 30.7445 24.9524 30.3995 24.9524 29.9995C24.9524 29.5995 24.8574 29.2745 24.6674 29.0245C24.4774 28.7745 24.2374 28.5595 23.9474 28.3795C23.6674 28.1995 23.3574 28.0345 23.0174 27.8845C22.6874 27.7245 22.3774 27.5345 22.0874 27.3145C21.8074 27.0945 21.5724 26.8295 21.3824 26.5195C21.1924 26.1995 21.0974 25.7845 21.0974 25.2745C21.0974 24.9145 21.1724 24.5595 21.3224 24.2095C21.4724 23.8495 21.7024 23.5295 22.0124 23.2495C22.3324 22.9695 22.7274 22.7445 23.1974 22.5745C23.6774 22.3945 24.2424 22.3045 24.8924 22.3045C25.3224 22.3045 25.7274 22.3495 26.1074 22.4395C26.4974 22.5195 26.9174 22.6695 27.3674 22.8895L26.8424 23.7445C26.4924 23.5345 26.1424 23.3895 25.7924 23.3095C25.4524 23.2195 25.0924 23.1745 24.7124 23.1745C24.3824 23.1745 24.0624 23.2145 23.7524 23.2945C23.4524 23.3645 23.1824 23.4795 22.9424 23.6395C22.7024 23.7895 22.5074 23.9945 22.3574 24.2545C22.2174 24.5045 22.1474 24.8095 22.1474 25.1695C22.1474 25.5695 22.2424 25.8945 22.4324 26.1445C22.6224 26.3945 22.8624 26.6095 23.1524 26.7895C23.4424 26.9695 23.7524 27.1395 24.0824 27.2995C24.4124 27.4495 24.7224 27.6345 25.0124 27.8545C25.3024 28.0645 25.5424 28.3345 25.7324 28.6645C25.9224 28.9945 26.0174 29.4245 26.0174 29.9545C26.0174 30.3445 25.9374 30.7345 25.7774 31.1245C25.6274 31.5045 25.3824 31.8445 25.0424 32.1445C24.7124 32.4445 24.2874 32.6895 23.7674 32.8795C23.2574 33.0595 22.6424 33.1495 21.9224 33.1495C21.4424 33.1495 20.9724 33.0845 20.5124 32.9545C20.0624 32.8245 19.6424 32.6445 19.2524 32.4145L19.7774 31.5295ZM29.5619 33.1045C29.1319 33.1045 28.7719 33.0495 28.4819 32.9395C28.1919 32.8295 27.9619 32.6795 27.7919 32.4895C27.6219 32.2895 27.4969 32.0595 27.4169 31.7995C27.3469 31.5295 27.3119 31.2395 27.3119 30.9295C27.3119 30.6395 27.3369 30.3345 27.3869 30.0145C27.4369 29.6845 27.5019 29.3545 27.5819 29.0245L28.5119 25.1695H29.4869L28.6619 28.5895C28.5819 28.9395 28.4919 29.3095 28.3919 29.6995C28.3019 30.0795 28.2569 30.4445 28.2569 30.7945C28.2569 30.9945 28.2769 31.1795 28.3169 31.3495C28.3669 31.5195 28.4469 31.6695 28.5569 31.7995C28.6669 31.9295 28.8119 32.0295 28.9919 32.0995C29.1719 32.1695 29.4019 32.2045 29.6819 32.2045C30.1619 32.2045 30.5819 32.1095 30.9419 31.9195C31.3119 31.7295 31.6569 31.4545 31.9769 31.0945C31.9769 30.8245 32.0169 30.5145 32.0969 30.1645C32.1769 29.8145 32.2519 29.4995 32.3219 29.2195L33.3269 25.1695H34.3019L33.1169 29.9695C33.0569 30.2195 33.0069 30.4545 32.9669 30.6745C32.9269 30.8945 32.9069 31.1045 32.9069 31.3045C32.9069 31.5745 32.9319 31.8295 32.9819 32.0695C33.0319 32.3095 33.1219 32.5745 33.2519 32.8645L32.2469 33.0145C32.1869 32.8945 32.1319 32.7595 32.0819 32.6095C32.0419 32.4495 32.0119 32.2895 31.9919 32.1295C31.6419 32.4695 31.2669 32.7195 30.8669 32.8795C30.4769 33.0295 30.0419 33.1045 29.5619 33.1045ZM40.9838 26.0095C40.8038 25.9695 40.6388 25.9395 40.4888 25.9195C40.3388 25.8995 40.1838 25.8895 40.0238 25.8895C39.4038 25.8895 38.8538 26.0095 38.3738 26.2495C37.8938 26.4895 37.4888 26.8045 37.1588 27.1945C36.8288 27.5845 36.5738 28.0295 36.3938 28.5295C36.2238 29.0295 36.1388 29.5395 36.1388 30.0595C36.1388 30.4695 36.1788 30.8145 36.2588 31.0945C36.3388 31.3645 36.4488 31.5845 36.5888 31.7545C36.7288 31.9145 36.8888 32.0345 37.0688 32.1145C37.2588 32.1845 37.4588 32.2195 37.6688 32.2195C38.0788 32.2195 38.4638 32.1245 38.8238 31.9345C39.1838 31.7345 39.5238 31.4545 39.8438 31.0945C39.8438 30.8245 39.8838 30.5145 39.9638 30.1645C40.0438 29.8145 40.1188 29.4995 40.1888 29.2195L40.9838 26.0095ZM40.1138 33.0145C40.0538 32.8945 39.9988 32.7595 39.9488 32.6095C39.9088 32.4495 39.8788 32.2895 39.8588 32.1295C39.5088 32.4695 39.1388 32.7195 38.7488 32.8795C38.3688 33.0395 37.9738 33.1195 37.5638 33.1195C37.2438 33.1195 36.9388 33.0645 36.6488 32.9545C36.3588 32.8445 36.1038 32.6745 35.8838 32.4445C35.6638 32.2145 35.4838 31.9195 35.3438 31.5595C35.2138 31.1895 35.1488 30.7545 35.1488 30.2545C35.1488 29.4545 35.2788 28.7295 35.5388 28.0795C35.7988 27.4295 36.1588 26.8795 36.6188 26.4295C37.0888 25.9695 37.6388 25.6145 38.2688 25.3645C38.9088 25.1145 39.6038 24.9895 40.3538 24.9895C40.9738 24.9895 41.5688 25.0945 42.1388 25.3045L40.9838 29.9695C40.9238 30.2195 40.8738 30.4545 40.8338 30.6745C40.7938 30.8945 40.7738 31.1045 40.7738 31.3045C40.7738 31.5745 40.7988 31.8295 40.8488 32.0695C40.8988 32.3095 40.9888 32.5745 41.1188 32.8645L40.1138 33.0145ZM53.1021 26.9845C53.1021 27.5445 52.9621 27.9995 52.6821 28.3495C52.4121 28.6995 52.0271 28.9795 51.5271 29.1895C51.0371 29.3895 50.4421 29.5345 49.7421 29.6245C49.0521 29.7145 48.2821 29.7795 47.4321 29.8195V30.1345C47.4321 30.4245 47.4621 30.6945 47.5221 30.9445C47.5821 31.1945 47.6921 31.4145 47.8521 31.6045C48.0121 31.7845 48.2321 31.9295 48.5121 32.0395C48.8021 32.1495 49.1721 32.2045 49.6221 32.2045C49.9721 32.2045 50.3221 32.1545 50.6721 32.0545C51.0321 31.9545 51.3721 31.8045 51.6921 31.6045L51.7971 32.5045C51.4571 32.6945 51.0821 32.8395 50.6721 32.9395C50.2621 33.0495 49.8471 33.1045 49.4271 33.1045C48.8771 33.1045 48.4121 33.0345 48.0321 32.8945C47.6621 32.7545 47.3571 32.5595 47.1171 32.3095C46.8871 32.0595 46.7221 31.7595 46.6221 31.4095C46.5221 31.0595 46.4721 30.6745 46.4721 30.2545C46.4721 29.6145 46.5671 28.9795 46.7571 28.3495C46.9571 27.7195 47.2471 27.1545 47.6271 26.6545C48.0071 26.1545 48.4721 25.7545 49.0221 25.4545C49.5821 25.1445 50.2171 24.9895 50.9271 24.9895C51.6271 24.9895 52.1621 25.1745 52.5321 25.5445C52.9121 25.9045 53.1021 26.3845 53.1021 26.9845ZM50.8371 25.8745C50.4371 25.8745 50.0621 25.9595 49.7121 26.1295C49.3621 26.2895 49.0471 26.5095 48.7671 26.7895C48.4871 27.0695 48.2421 27.3945 48.0321 27.7645C47.8321 28.1345 47.6821 28.5245 47.5821 28.9345C48.4321 28.9145 49.1471 28.8595 49.7271 28.7695C50.3071 28.6795 50.7721 28.5545 51.1221 28.3945C51.4821 28.2345 51.7371 28.0445 51.8871 27.8245C52.0371 27.5945 52.1121 27.3345 52.1121 27.0445C52.1121 26.6545 51.9921 26.3645 51.7521 26.1745C51.5221 25.9745 51.2171 25.8745 50.8371 25.8745ZM53.4663 31.6945C53.8363 31.8945 54.1613 32.0295 54.4413 32.0995C54.7213 32.1695 55.0363 32.2045 55.3863 32.2045C55.6363 32.2045 55.8763 32.1795 56.1063 32.1295C56.3363 32.0695 56.5363 31.9845 56.7063 31.8745C56.8763 31.7645 57.0113 31.6195 57.1113 31.4395C57.2113 31.2595 57.2613 31.0495 57.2613 30.8095C57.2613 30.5495 57.1863 30.3345 57.0363 30.1645C56.8963 29.9945 56.7163 29.8495 56.4963 29.7295C56.2863 29.5995 56.0563 29.4745 55.8063 29.3545C55.5563 29.2345 55.3213 29.0945 55.1013 28.9345C54.8913 28.7745 54.7113 28.5745 54.5613 28.3345C54.4213 28.0945 54.3513 27.7845 54.3513 27.4045C54.3513 26.9745 54.4313 26.6095 54.5913 26.3095C54.7513 25.9995 54.9663 25.7495 55.2363 25.5595C55.5063 25.3595 55.8163 25.2145 56.1663 25.1245C56.5163 25.0345 56.8763 24.9895 57.2463 24.9895C57.5663 24.9895 57.8813 25.0195 58.1913 25.0795C58.5113 25.1295 58.8163 25.2095 59.1063 25.3195L58.7163 26.1895C58.5063 26.0995 58.2663 26.0295 57.9963 25.9795C57.7263 25.9195 57.4463 25.8895 57.1563 25.8895C56.9163 25.8895 56.6813 25.9145 56.4513 25.9645C56.2313 26.0145 56.0363 26.0995 55.8663 26.2195C55.6963 26.3295 55.5563 26.4745 55.4463 26.6545C55.3463 26.8245 55.2963 27.0345 55.2963 27.2845C55.2963 27.5445 55.3663 27.7595 55.5063 27.9295C55.6563 28.0995 55.8363 28.2495 56.0463 28.3795C56.2563 28.5095 56.4863 28.6345 56.7363 28.7545C56.9963 28.8645 57.2313 28.9995 57.4413 29.1595C57.6513 29.3195 57.8263 29.5145 57.9663 29.7445C58.1163 29.9645 58.1913 30.2495 58.1913 30.5995C58.1913 31.0395 58.1063 31.4195 57.9363 31.7395C57.7763 32.0595 57.5613 32.3195 57.2913 32.5195C57.0213 32.7195 56.7113 32.8645 56.3613 32.9545C56.0113 33.0545 55.6513 33.1045 55.2813 33.1045C54.8913 33.1045 54.5013 33.0595 54.1113 32.9695C53.7213 32.8895 53.3663 32.7595 53.0463 32.5795L53.4663 31.6945ZM64.8572 32.5495C64.6572 32.6795 64.3472 32.8045 63.9272 32.9245C63.5172 33.0445 63.0572 33.1045 62.5472 33.1045C61.6372 33.1045 60.9522 32.8445 60.4922 32.3245C60.0322 31.8045 59.8022 31.0895 59.8022 30.1795C59.8022 29.4995 59.9072 28.8495 60.1172 28.2295C60.3272 27.5995 60.6322 27.0445 61.0322 26.5645C61.4422 26.0845 61.9422 25.7045 62.5322 25.4245C63.1222 25.1345 63.7922 24.9895 64.5422 24.9895C65.0622 24.9895 65.5772 25.0745 66.0872 25.2445L65.6822 26.1295C65.4522 26.0395 65.2222 25.9795 64.9922 25.9495C64.7722 25.9095 64.5572 25.8895 64.3472 25.8895C63.8172 25.8895 63.3322 26.0045 62.8922 26.2345C62.4622 26.4545 62.0922 26.7595 61.7822 27.1495C61.4722 27.5295 61.2322 27.9745 61.0622 28.4845C60.8922 28.9845 60.8072 29.5145 60.8072 30.0745C60.8072 30.7345 60.9572 31.2545 61.2572 31.6345C61.5672 32.0145 62.0572 32.2045 62.7272 32.2045C62.9372 32.2045 63.1472 32.1845 63.3572 32.1445C63.5772 32.1045 63.7772 32.0595 63.9572 32.0095C64.1372 31.9495 64.2972 31.8895 64.4372 31.8295C64.5772 31.7695 64.6822 31.7145 64.7522 31.6645L64.8572 32.5495ZM67.4572 30.4345C67.4572 31.0245 67.6222 31.4695 67.9522 31.7695C68.2822 32.0695 68.6772 32.2195 69.1372 32.2195C69.4972 32.2195 69.8672 32.1295 70.2472 31.9495C70.6272 31.7595 70.9722 31.4795 71.2822 31.1095C71.6022 30.7295 71.8622 30.2545 72.0622 29.6845C72.2722 29.1145 72.3772 28.4445 72.3772 27.6745C72.3772 27.0845 72.2122 26.6395 71.8822 26.3395C71.5522 26.0395 71.1572 25.8895 70.6972 25.8895C70.3372 25.8895 69.9672 25.9845 69.5872 26.1745C69.2072 26.3545 68.8572 26.6345 68.5372 27.0145C68.2272 27.3845 67.9672 27.8545 67.7572 28.4245C67.5572 28.9945 67.4572 29.6645 67.4572 30.4345ZM73.3672 27.5995C73.3672 28.5395 73.2322 29.3545 72.9622 30.0445C72.7022 30.7345 72.3622 31.3095 71.9422 31.7695C71.5322 32.2195 71.0722 32.5545 70.5622 32.7745C70.0622 32.9945 69.5672 33.1045 69.0772 33.1045C68.7272 33.1045 68.3922 33.0495 68.0722 32.9395C67.7622 32.8295 67.4872 32.6645 67.2472 32.4445C67.0072 32.2245 66.8172 31.9545 66.6772 31.6345C66.5372 31.3045 66.4672 30.9245 66.4672 30.4945C66.4672 29.5545 66.5972 28.7395 66.8572 28.0495C67.1272 27.3595 67.4672 26.7895 67.8772 26.3395C68.2972 25.8895 68.7572 25.5545 69.2572 25.3345C69.7672 25.1145 70.2672 25.0045 70.7572 25.0045C71.1072 25.0045 71.4372 25.0595 71.7472 25.1695C72.0672 25.2795 72.3472 25.4445 72.5872 25.6645C72.8272 25.8845 73.0172 26.1595 73.1572 26.4895C73.2972 26.8095 73.3672 27.1795 73.3672 27.5995ZM76.6577 21.4645L77.6627 21.2845L75.8027 29.0995C75.7227 29.4395 75.6427 29.7645 75.5627 30.0745C75.4927 30.3745 75.4577 30.6545 75.4577 30.9145C75.4577 31.0745 75.4727 31.2245 75.5027 31.3645C75.5327 31.4945 75.5927 31.6145 75.6827 31.7245C75.7727 31.8245 75.8977 31.9145 76.0577 31.9945C76.2277 32.0745 76.4427 32.1445 76.7027 32.2045L76.4777 33.0595C75.7477 32.9695 75.2377 32.7495 74.9477 32.3995C74.6577 32.0395 74.5127 31.5895 74.5127 31.0495C74.5127 30.8095 74.5327 30.5595 74.5727 30.2995C74.6127 30.0295 74.6677 29.7495 74.7377 29.4595L76.6577 21.4645ZM83.9917 26.0095C83.8117 25.9695 83.6467 25.9395 83.4967 25.9195C83.3467 25.8995 83.1917 25.8895 83.0317 25.8895C82.4117 25.8895 81.8617 26.0095 81.3817 26.2495C80.9017 26.4895 80.4967 26.8045 80.1667 27.1945C79.8367 27.5845 79.5817 28.0295 79.4017 28.5295C79.2317 29.0295 79.1467 29.5395 79.1467 30.0595C79.1467 30.4695 79.1867 30.8145 79.2667 31.0945C79.3467 31.3645 79.4567 31.5845 79.5967 31.7545C79.7367 31.9145 79.8967 32.0345 80.0767 32.1145C80.2667 32.1845 80.4667 32.2195 80.6767 32.2195C81.0867 32.2195 81.4717 32.1245 81.8317 31.9345C82.1917 31.7345 82.5317 31.4545 82.8517 31.0945C82.8517 30.8245 82.8917 30.5145 82.9717 30.1645C83.0517 29.8145 83.1267 29.4995 83.1967 29.2195L83.9917 26.0095ZM83.1217 33.0145C83.0617 32.8945 83.0067 32.7595 82.9567 32.6095C82.9167 32.4495 82.8867 32.2895 82.8667 32.1295C82.5167 32.4695 82.1467 32.7195 81.7567 32.8795C81.3767 33.0395 80.9817 33.1195 80.5717 33.1195C80.2517 33.1195 79.9467 33.0645 79.6567 32.9545C79.3667 32.8445 79.1117 32.6745 78.8917 32.4445C78.6717 32.2145 78.4917 31.9195 78.3517 31.5595C78.2217 31.1895 78.1567 30.7545 78.1567 30.2545C78.1567 29.4545 78.2867 28.7295 78.5467 28.0795C78.8067 27.4295 79.1667 26.8795 79.6267 26.4295C80.0967 25.9695 80.6467 25.6145 81.2767 25.3645C81.9167 25.1145 82.6117 24.9895 83.3617 24.9895C83.9817 24.9895 84.5767 25.0945 85.1467 25.3045L83.9917 29.9695C83.9317 30.2195 83.8817 30.4545 83.8417 30.6745C83.8017 30.8945 83.7817 31.1045 83.7817 31.3045C83.7817 31.5745 83.8067 31.8295 83.8567 32.0695C83.9067 32.3095 83.9967 32.5745 84.1267 32.8645L83.1217 33.0145Z" fill="black"/>
<path d="M36.1986 46.5195C36.0586 47.0895 36.0186 47.6645 36.0786 48.2445C36.1386 48.8145 36.2536 49.3245 36.4236 49.7745L34.4286 50.0595C34.3686 49.9395 34.3136 49.8245 34.2636 49.7145C34.2136 49.6045 34.1636 49.4795 34.1136 49.3395C33.8336 49.5695 33.5236 49.7595 33.1836 49.9095C32.8436 50.0595 32.4636 50.1345 32.0436 50.1345C31.5436 50.1345 31.1136 50.0495 30.7536 49.8795C30.4036 49.6995 30.1136 49.4645 29.8836 49.1745C29.6636 48.8745 29.5036 48.5295 29.4036 48.1395C29.3036 47.7395 29.2536 47.3145 29.2536 46.8645C29.2536 46.1745 29.3736 45.5245 29.6136 44.9145C29.8636 44.3045 30.2036 43.7745 30.6336 43.3245C31.0736 42.8645 31.5886 42.5045 32.1786 42.2445C32.7686 41.9845 33.4086 41.8545 34.0986 41.8545C34.1886 41.8545 34.3436 41.8595 34.5636 41.8695C34.7936 41.8795 35.0536 41.9045 35.3436 41.9445C35.6336 41.9745 35.9386 42.0295 36.2586 42.1095C36.5786 42.1895 36.8836 42.2995 37.1736 42.4395L36.1986 46.5195ZM34.6386 43.7595C34.5086 43.7395 34.3886 43.7245 34.2786 43.7145C34.1786 43.7045 34.0536 43.6995 33.9036 43.6995C33.5636 43.6995 33.2436 43.7845 32.9436 43.9545C32.6536 44.1245 32.3986 44.3495 32.1786 44.6295C31.9586 44.8995 31.7836 45.2145 31.6536 45.5745C31.5336 45.9345 31.4736 46.3095 31.4736 46.6995C31.4736 47.1795 31.5536 47.5595 31.7136 47.8395C31.8736 48.1195 32.1686 48.2595 32.5986 48.2595C32.8286 48.2595 33.0336 48.2145 33.2136 48.1245C33.4036 48.0345 33.6036 47.8845 33.8136 47.6745C33.8336 47.4245 33.8636 47.1645 33.9036 46.8945C33.9536 46.6145 34.0036 46.3595 34.0536 46.1295L34.6386 43.7595ZM38.0719 46.8645C38.0719 46.0845 38.2019 45.3845 38.4619 44.7645C38.7319 44.1445 39.0969 43.6195 39.5569 43.1895C40.0269 42.7595 40.5719 42.4295 41.1919 42.1995C41.8119 41.9695 42.4819 41.8545 43.2019 41.8545C44.1319 41.8545 45.0869 42.0495 46.0669 42.4395L43.6219 52.6995H41.3869L42.0769 49.7895C41.6369 49.9795 41.1869 50.0745 40.7269 50.0745C40.3469 50.0745 39.9919 50.0045 39.6619 49.8645C39.3419 49.7145 39.0619 49.5045 38.8219 49.2345C38.5919 48.9545 38.4069 48.6145 38.2669 48.2145C38.1369 47.8145 38.0719 47.3645 38.0719 46.8645ZM43.5319 43.7595C43.4319 43.7395 43.3269 43.7245 43.2169 43.7145C43.1069 43.7045 42.9969 43.6995 42.8869 43.6995C42.4769 43.6995 42.1119 43.7795 41.7919 43.9395C41.4719 44.0995 41.1969 44.3195 40.9669 44.5995C40.7469 44.8695 40.5769 45.1895 40.4569 45.5595C40.3469 45.9195 40.2919 46.2995 40.2919 46.6995C40.2919 47.2695 40.3869 47.6645 40.5769 47.8845C40.7669 48.1045 41.0269 48.2145 41.3569 48.2145C41.5469 48.2145 41.7319 48.1895 41.9119 48.1395C42.1019 48.0795 42.3119 47.9795 42.5419 47.8395L43.5319 43.7595ZM54.4855 42.0345L53.4205 46.5195C53.2805 47.0895 53.2405 47.6645 53.3005 48.2445C53.3605 48.8145 53.4755 49.3245 53.6455 49.7745L51.6505 50.0595C51.5405 49.8395 51.4355 49.5945 51.3355 49.3245C51.0555 49.5445 50.7405 49.7295 50.3905 49.8795C50.0405 50.0295 49.6505 50.1045 49.2205 50.1045C48.6305 50.1045 48.1505 49.9995 47.7805 49.7895C47.4205 49.5695 47.1505 49.2845 46.9705 48.9345C46.7905 48.5745 46.6905 48.1645 46.6705 47.7045C46.6605 47.2445 46.7155 46.7745 46.8355 46.2945L47.8555 42.0345H50.0905L49.0855 46.2645C49.0355 46.4845 48.9905 46.7095 48.9505 46.9395C48.9205 47.1695 48.9205 47.3845 48.9505 47.5845C48.9805 47.7745 49.0555 47.9345 49.1755 48.0645C49.3055 48.1845 49.5055 48.2445 49.7755 48.2445C50.0055 48.2445 50.2155 48.2045 50.4055 48.1245C50.6055 48.0345 50.8155 47.8845 51.0355 47.6745C51.0555 47.4245 51.0855 47.1645 51.1255 46.8945C51.1755 46.6145 51.2255 46.3595 51.2755 46.1295L52.2505 42.0345H54.4855ZM57.1564 49.9245H54.9364L56.8114 42.0345H59.0464L57.1564 49.9245ZM58.2364 41.0745C57.9264 41.0745 57.6464 40.9845 57.3964 40.8045C57.1464 40.6145 57.0214 40.3295 57.0214 39.9495C57.0214 39.7395 57.0614 39.5445 57.1414 39.3645C57.2314 39.1745 57.3464 39.0145 57.4864 38.8845C57.6264 38.7445 57.7864 38.6345 57.9664 38.5545C58.1564 38.4745 58.3564 38.4345 58.5664 38.4345C58.8764 38.4345 59.1564 38.5295 59.4064 38.7195C59.6564 38.8995 59.7814 39.1795 59.7814 39.5595C59.7814 39.7695 59.7364 39.9695 59.6464 40.1595C59.5664 40.3395 59.4564 40.4995 59.3164 40.6395C59.1764 40.7695 59.0114 40.8745 58.8214 40.9545C58.6414 41.0345 58.4464 41.0745 58.2364 41.0745ZM63.5529 44.5095L70.6629 41.7945L70.8129 43.6545L65.6229 45.4545L69.8829 47.4195L68.9379 49.0845L63.1479 46.2645L63.5529 44.5095ZM77.3733 44.4045C77.7933 44.6045 78.1183 44.9145 78.3483 45.3345C78.5783 45.7445 78.6933 46.1945 78.6933 46.6845C78.6933 47.0945 78.6083 47.5045 78.4383 47.9145C78.2683 48.3245 77.9983 48.6945 77.6283 49.0245C77.2583 49.3545 76.7883 49.6245 76.2183 49.8345C75.6483 50.0345 74.9633 50.1345 74.1633 50.1345C73.0233 50.1345 71.9983 49.8995 71.0883 49.4295L71.8983 47.6595C72.1883 47.8595 72.5483 48.0245 72.9783 48.1545C73.4083 48.2745 73.8483 48.3345 74.2983 48.3345C74.5783 48.3345 74.8483 48.3045 75.1083 48.2445C75.3783 48.1845 75.6133 48.0845 75.8133 47.9445C76.0133 47.8045 76.1733 47.6245 76.2933 47.4045C76.4133 47.1845 76.4733 46.9145 76.4733 46.5945C76.4733 46.1845 76.3033 45.8745 75.9633 45.6645C75.6333 45.4545 75.1883 45.3495 74.6283 45.3495H73.6683L74.1033 43.5795H75.1833C75.3933 43.5795 75.6133 43.5595 75.8433 43.5195C76.0733 43.4795 76.2833 43.4095 76.4733 43.3095C76.6633 43.1995 76.8183 43.0595 76.9383 42.8895C77.0683 42.7095 77.1333 42.4795 77.1333 42.1995C77.1333 41.8495 77.0133 41.5945 76.7733 41.4345C76.5333 41.2645 76.2183 41.1795 75.8283 41.1795C75.5183 41.1795 75.1733 41.2345 74.7933 41.3445C74.4233 41.4545 74.0383 41.6145 73.6383 41.8245L73.0683 40.1445C73.5583 39.8645 74.0633 39.6545 74.5833 39.5145C75.1033 39.3645 75.6433 39.2895 76.2033 39.2895C76.7333 39.2895 77.1983 39.3645 77.5983 39.5145C77.9983 39.6545 78.3283 39.8445 78.5883 40.0845C78.8583 40.3245 79.0583 40.5995 79.1883 40.9095C79.3183 41.2095 79.3833 41.5195 79.3833 41.8395C79.3833 42.0995 79.3383 42.3595 79.2483 42.6195C79.1683 42.8695 79.0433 43.1095 78.8733 43.3395C78.7133 43.5595 78.5033 43.7645 78.2433 43.9545C77.9933 44.1345 77.7033 44.2845 77.3733 44.4045Z" fill="#4219B5"/>
</svg>
